<?xml version="1.0" encoding="UTF-8"?>
<svg version="1.1" viewBox="0 0 128 128" xmlns="http://www.w3.org/2000/svg" xmlns:xlink="http://www.w3.org/1999/xlink">
 <defs>
  <clipPath id="b">
   <rect width="128" height="128" ry="11.318"/>
  </clipPath>
  <linearGradient id="a" x1="40.842" x2="88.842" y1="64.842" y2="64.842" gradientUnits="userSpaceOnUse">
   <stop stop-color="#d42e2e" offset=".4"/>
   <stop stop-color="#dc5656" offset=".6"/>
  </linearGradient>
 </defs>
 <g clip-path="url(#b)">
  <g>
   <g>
    <path d="m0 0 54.945 9.9895e-8 12.845 23.742-10.409 16.929 6.573 10.831-7.9019 18.898 15.281 18.581-9.9662 11.355-13.067 8.671 11.074 9.0839 4.6991 9.9097h-64.074z" fill="#9fa5a0"/>
    <path d="m16.382 50.084 23.57 77.916h-39.952v-64z" fill="#00a1bf"/>
    <path d="m16.382 50.084 23.57 77.916" fill="#00a1bf" stroke="#fff" stroke-linecap="square" stroke-linejoin="round" stroke-opacity=".99454" stroke-width="3"/>
    <path d="m0 64 61.368-52.129-6.4226-11.871-54.945-9.9895e-8z" fill="#309e15"/>
   </g>
   <path d="M 61.367838,11.870968 0,64" fill="none" stroke="#ffe30b" stroke-linecap="square" stroke-linejoin="round" stroke-opacity=".99454" stroke-width="3"/>
   <g transform="translate(-1.9904 1.7493)">
    <path d="m6.7081 74.925 10.73 22.515 10.73-22.515z" fill="#d42e2e"/>
    <ellipse cx="17.438" cy="70.748" rx="9.4689" ry="9.4689" fill="#9fa5a0" stroke="#d42e2e" stroke-linecap="square" stroke-linejoin="round" stroke-width="4.5"/>
   </g>
   <path d="m54.945 9.9895e-8 73.055-9.9895e-8v128h-63.926l-4.6991-9.9097-11.074-9.0839 13.067-8.671 9.9662-11.355-15.281-18.581 7.9019-18.898-6.573-10.831 10.409-16.929z" fill="#a9de94"/>
   <g fill="none" stroke-linecap="square" stroke-linejoin="round">
    <path d="m101.25 0-18.476 21.25-0.73873 14.127 22.812 6.4011-25.163 23.928 0.3763 20.681 21.476 1.257-5.4837 5.3115-15.992 12.252-1.6809 22.793" stroke="#dc5656" stroke-width="3"/>
    <path d="m96.052 92.955 14.534 14.981 9.9328-31.262 7.482 3.3253" stroke="#dc5656" stroke-width="3"/>
    <path d="m109.04 2.5926e-8c10.154 15.23 0.88293 14.347-6.6219 19.645-7.5048 5.2975 0.22073 12.123 6.8426 15.994 6.6219 3.8713 17.392 8.4733 11.455 13.51-5.9369 5.0366-9.4686 11.47-4.8332 19.498 4.6353 8.028 12.117-4.6467 12.117-4.6467" stroke="#88c2cf" stroke-width="1.5"/>
   </g>
   <path d="m99.769 119.86c-3.1008 3.3587 5.2975 8.1442 5.2975 8.1442h4.4146s-5.6937-3.0674-4.4146-6.8198c0.5517-1.6184 2.0627-3.4975 4.0942-5.3391 2.6786-2.4281 7.8529-4.7996 11.511-5.9633 9.8957-3.1484 7.3282-4.6704 7.3282-4.6704-7.5949 2.8772-23.592 9.8254-28.231 14.648z" fill="#88c2cf"/>
   <g fill="#8adf68">
    <path d="m64.449 2.1269c5.3907 14.257-0.92937 15.529 5.3907 17.312 6.3201 1.7821 18.742-7.4509 15.358-12.54-3.3847-5.0894-9.076-10.945-13.448-8.399-4.3724 2.5458-9.4376-2.0254-7.3 3.6278z"/>
    <path d="m106.2 23.274c0.69157 2.1645 4.2735 4.3643 8.3688 5.519 4.0953 1.1548 8.587-11.157 6.3938-14.455-2.1932-3.2979-2.9066 3.6395-5.7398 5.2892-2.8332 1.6496-10.215-0.08349-9.0228 3.647z"/>
    <path d="m90.64 66.112c-1.8862 11.221-3.0258 15.403 3.2943 17.185 6.3201 1.7821 11.297-6.7972 11.067-7.7787-0.59152-2.5235 7.9427-17.491-1.3622-14.56-6.409 2.0191-11.555-3.4371-12.999 5.1531z"/>
   </g>
  </g>
  <path d="m54.945 9.9895e-8 12.845 23.742-10.409 16.929 6.573 10.831-7.9019 18.898 15.281 18.581-9.9662 11.355-13.067 8.671s10.409 7.4322 11.074 9.0839c0.66441 1.6516 4.6991 9.9097 4.6991 9.9097" fill="none" stroke="#4e4e4e" stroke-linecap="round" stroke-linejoin="round" stroke-opacity=".99454" stroke-width="3.5"/>
  <rect x="42.784" y="51.842" width="48" height="31.824" ry="15.912" fill-opacity=".40125"/>
  <rect x="41.103" y="49.103" width="47.477" height="31.477" ry="15.739" fill="url(#a)" stroke="#fef8f8" stroke-width=".52296"/>
  <circle cx="73.084" cy="64.842" r="13" fill="#fff"/>
 </g>
</svg>
